<svg version="1.2" xmlns="http://www.w3.org/2000/svg" viewBox="0 0 48 60" width="48" height="60">
	<title>noun-contact-page-645947-svg</title>
	<style>
		.s0 { fill: #000000 } 
	</style>
	<g>
		<path fill-rule="evenodd" class="s0" d="m44 0v48h-40v-48zm-33 2c0 0.6 0.4 1 1 1 0.6 0 1-0.4 1-1 0-0.6-0.4-1-1-1-0.6 0-1 0.4-1 1zm-3 0c0 0.6 0.4 1 1 1 0.6 0 1-0.4 1-1 0-0.6-0.4-1-1-1-0.6 0-1 0.4-1 1zm-3 0c0 0.6 0.4 1 1 1 0.6 0 1-0.4 1-1 0-0.6-0.4-1-1-1-0.6 0-1 0.4-1 1zm38 2h-38v43h38z"/>
		<path class="s0" d="m19 39h8v3h-8z"/>
		<path class="s0" d="m29 39h8v3h-8z"/>
		<path fill-rule="evenodd" class="s0" d="m37 23h-27v-13h27zm-11-8c0-1.7-1.3-3-3-3-1.7 0-3 1.3-3 3 0 0.4 0 0.7 0.2 1l2.1 4.6c0.1 0.2 0.4 0.4 0.7 0.4 0.3 0 0.6-0.2 0.7-0.4l2.1-4.6c0.2-0.3 0.2-0.6 0.2-1z"/>
		<path class="s0" d="m23 13.5c-0.8 0-1.5 0.7-1.5 1.5 0 0.8 0.7 1.5 1.5 1.5 0.8 0 1.5-0.7 1.5-1.5 0-0.8-0.7-1.5-1.5-1.5z"/>
		<path fill-rule="evenodd" class="s0" d="m10 37v-5h27v5zm1-1h25v-3h-25z"/>
		<path class="s0" d="m10 29h13v2h-13z"/>
		<path class="s0" d="m24 29h13v2h-13z"/>
		<path class="s0" d="m10 26h13v2h-13z"/>
		<path class="s0" d="m24 26h13v2h-13z"/>
	</g>
</svg>